<svg height="512" viewBox="0 0 64 64" width="512" xmlns="http://www.w3.org/2000/svg"><g id="flat"><path d="m57 62a3 3 0 0 1 -3-3 1 1 0 0 0 -2 0 3 3 0 0 1 -6 0 1 1 0 0 0 -2 0 1 1 0 0 1 -1 1h-4v-2h3.171a3 3 0 0 1 5.829 1 1 1 0 0 0 2 0 3 3 0 0 1 6 0 1 1 0 0 0 2 0v-12h2v12a3 3 0 0 1 -3 3z" fill="#50b4f8"/><path d="m55 53h-46c-3.49 0-6.26-2.52-6-6 0 0 .62-4.81 1.17-10 .45-4.2.84-8.64.83-11-.01-1.58-.23-4.21-.52-7-.6-5.64-1.48-12-1.48-12a3.732 3.732 0 0 1 4-4h50a3.732 3.732 0 0 1 4 4s-.88 6.36-1.48 12c-.29 2.79-.51 5.42-.52 7-.01 2.36.38 6.8.83 11 .55 5.19 1.17 10 1.17 10 .26 3.48-2.51 6-6 6z" fill="#e33e5c"/><rect fill="#f98c96" height="4" rx="2" width="20" x="22" y="7"/><circle cx="16" cy="9" fill="#fff69a" r="2"/><circle cx="48" cy="9" fill="#fff69a" r="2"/><rect fill="#fff69a" height="26" rx="2" width="46" x="9" y="15"/><rect fill="#f98c96" height="4" rx="2" width="47" x="9" y="45"/><path d="m20 45h6v4h-6z" fill="#f4f4e6"/><path d="m14 24h-2v-5a1 1 0 0 1 1-1h3v2h-2z" fill="#f9bb4b"/><path d="m51 38h-5v-2h4v-6h2v7a1 1 0 0 1 -1 1z" fill="#f9bb4b"/><g fill="#f98c96"><path d="m9 19v18h-4.83c.45-4.2.84-8.64.83-11-.01-1.58-.23-4.21-.52-7z"/><path d="m59.83 37h-4.83v-18h4.52c-.29 2.79-.51 5.42-.52 7-.01 2.36.38 6.8.83 11z"/><path d="m9 13h-2a3.514 3.514 0 0 0 -.351-1.561 7.917 7.917 0 0 1 -.649-3.439 2.475 2.475 0 0 1 1.1-2.276c1.525-.94 3.885.152 4.343.381l-.888 1.795a3.67 3.67 0 0 0 -2.4-.469c-.139.082-.155.425-.155.569a5.947 5.947 0 0 0 .5 2.683 5.478 5.478 0 0 1 .5 2.317z"/><path d="m57 13h-2a5.478 5.478 0 0 1 .5-2.317 5.947 5.947 0 0 0 .5-2.683c0-.144-.016-.487-.155-.574a3.669 3.669 0 0 0 -2.4.469l-.892-1.79c.459-.229 2.82-1.32 4.343-.381a2.475 2.475 0 0 1 1.104 2.276 7.917 7.917 0 0 1 -.649 3.439 3.514 3.514 0 0 0 -.351 1.561z"/></g><path d="m37 28a3 3 0 0 0 -3-3h-4a1 1 0 0 0 -1 1v8a1 1 0 0 0 1 1h4a2.987 2.987 0 0 0 2.22-5 2.981 2.981 0 0 0 .78-2zm-3 5h-3v-2h3a1 1 0 0 1 0 2zm0-4h-3v-2h3a1 1 0 0 1 0 2z" fill="#50b4f8"/><path d="m26.9 27.553-4-8a1.042 1.042 0 0 0 -1.79 0l-4 8a1 1 0 1 0 1.79.894l1.218-2.447h3.764l1.223 2.447a1 1 0 1 0 1.79-.894zm-5.782-3.553.882-1.764.882 1.764z" fill="#50b4f8"/><path d="m44 30h-2a3 3 0 0 1 -3-3v-4a3 3 0 0 1 3-3h2a3 3 0 0 1 3 3 1 1 0 0 1 -2 0 1 1 0 0 0 -1-1h-2a1 1 0 0 0 -1 1v4a1 1 0 0 0 1 1h2a1 1 0 0 0 1-1 1 1 0 0 1 2 0 3 3 0 0 1 -3 3z" fill="#50b4f8"/><path d="m42 36h2v2h-2z" fill="#f9bb4b"/><path d="m11 57-7.01.876a1.131 1.131 0 0 0 -.99 1.124 1.131 1.131 0 0 0 .99 1.122l7.01.878h30v-4z" fill="#2d75bb"/></g></svg>